<svg width="62" height="62" viewBox="0 0 62 62" fill="none" xmlns="http://www.w3.org/2000/svg"><rect x="0.5" y="0.5" width="61" height="61" rx="7.5" fill="#2563EB" fill-opacity="0.1"/><rect x="0.5" y="0.5" width="61" height="61" rx="7.5" stroke="#2563EB"/><path d="M31 31.5858L35.2426 35.8284L33.8284 37.2426L32 35.415V41H30V35.413L28.1716 37.2426L26.7574 35.8284L31 31.5858ZM31 21C34.5934 21 37.5544 23.7076 37.9541 27.1939C40.2858 27.8315 42 29.9656 42 32.5C42 35.3688 39.8036 37.7246 37.0006 37.9776L37.0009 35.9644C38.6966 35.7214 40 34.2629 40 32.5C40 30.567 38.433 29 36.5 29C36.2912 29 36.0867 29.0183 35.8887 29.054C35.9616 28.7142 36 28.3616 36 28C36 25.2386 33.7614 23 31 23C28.2386 23 26 25.2386 26 28C26 28.3616 26.0384 28.7142 26.1121 29.0533C25.9133 29.0183 25.7088 29 25.5 29C23.567 29 22 30.567 22 32.5C22 34.2003 23.2124 35.6174 24.8199 35.934L25.0001 35.9646L25.0004 37.9776C22.197 37.7252 20 35.3692 20 32.5C20 29.9656 21.7142 27.8315 24.0465 27.1941C24.4456 23.7076 27.4066 21 31 21Z" fill="#2563EB"/></svg>
