<svg width="20" height="20" viewBox="0 0 20 20" fill="none" xmlns="http://www.w3.org/2000/svg">
<path d="M4.16667 5.83317C4.16667 5.14281 4.72631 4.58317 5.41667 4.58317C6.10702 4.58317 6.66667 5.14281 6.66667 5.83317C6.66667 6.52353 6.10702 7.08317 5.41667 7.08317C4.72631 7.08317 4.16667 6.52353 4.16667 5.83317ZM5.41667 2.9165C3.80583 2.9165 2.5 4.22234 2.5 5.83317C2.5 7.444 3.80583 8.74984 5.41667 8.74984C7.0275 8.74984 8.33333 7.444 8.33333 5.83317C8.33333 4.22234 7.0275 2.9165 5.41667 2.9165ZM10 6.6665H16.6667V4.99984H10V6.6665ZM13.3333 14.1665C13.3333 13.4762 13.893 12.9165 14.5833 12.9165C15.2737 12.9165 15.8333 13.4762 15.8333 14.1665C15.8333 14.8568 15.2737 15.4165 14.5833 15.4165C13.893 15.4165 13.3333 14.8568 13.3333 14.1665ZM14.5833 11.2498C12.9725 11.2498 11.6667 12.5557 11.6667 14.1665C11.6667 15.7773 12.9725 17.0832 14.5833 17.0832C16.1942 17.0832 17.5 15.7773 17.5 14.1665C17.5 12.5557 16.1942 11.2498 14.5833 11.2498ZM3.33333 13.3332V14.9998H10V13.3332H3.33333Z" fill="black"/>
</svg>
